<?xml version="1.0" encoding="UTF-8"?>
<svg width="100" height="60" viewBox="0 0 100 60" xmlns="http://www.w3.org/2000/svg">
  <!-- Background (optional, can be removed) -->
  <rect width="100" height="60" rx="8" fill="#000000" opacity="0"/>
  
  <!-- Container group to center all elements -->
  <g transform="translate(15, 15)">
    <!-- Left L (mirrored) -->
    <g transform="translate(0, 0) scale(1, 1)">
      <path d="M 20,0 L 20,30 L 0,30 L 0,25 L 15,25 L 15,0 Z" fill="#3d5a80"/>
    </g>
    
    <!-- Middle H -->
    <g transform="translate(25, 0) scale(1, 1)">
      <path d="M 0,0 L 0,30 L 5,30 L 5,18 L 15,18 L 15,30 L 20,30 L 20,0 L 15,0 L 15,13 L 5,13 L 5,0 Z" fill="#ee6c4d"/>
    </g>
    
    <!-- Right L (normal) -->
    <g transform="translate(50, 0) scale(1, 1)">
      <path d="M 0,0 L 0,30 L 20,30 L 20,25 L 5,25 L 5,0 Z" fill="#3d5a80"/>
    </g>
  </g>
</svg> 